<?xml version="1.0" encoding="UTF-8" standalone="no"?>
<!-- Created with Inkscape (http://www.inkscape.org/) -->

<svg
   xmlns:dc="http://purl.org/dc/elements/1.1/"
   xmlns:cc="http://creativecommons.org/ns#"
   xmlns:rdf="http://www.w3.org/1999/02/22-rdf-syntax-ns#"
   xmlns:svg="http://www.w3.org/2000/svg"
   xmlns="http://www.w3.org/2000/svg"
   xmlns:sodipodi="http://sodipodi.sourceforge.net/DTD/sodipodi-0.dtd"
   xmlns:inkscape="http://www.inkscape.org/namespaces/inkscape"
   width="109.47417mm"
   height="246.5761mm"
   viewBox="0 0 387.90059 873.69481"
   id="svg2"
   version="1.1"
   inkscape:version="0.91 r13725"
   sodipodi:docname="latticetotorus.svg">
  <sodipodi:namedview
     id="base"
     pagecolor="#ffffff"
     bordercolor="#666666"
     borderopacity="1.0"
     inkscape:pageopacity="0.0"
     inkscape:pageshadow="2"
     inkscape:zoom="0.7"
     inkscape:cx="123.27591"
     inkscape:cy="379.60997"
     inkscape:document-units="px"
     inkscape:current-layer="layer1"
     showgrid="false"
     inkscape:window-width="1916"
     inkscape:window-height="1041"
     inkscape:window-x="0"
     inkscape:window-y="18"
     inkscape:window-maximized="0"
     fit-margin-top="5"
     fit-margin-left="5"
     fit-margin-right="5"
     fit-margin-bottom="5" />
  <defs
     id="defs4">
    <marker
       inkscape:stockid="Arrow1Lend"
       orient="auto"
       refY="0"
       refX="0"
       id="Arrow1Lend"
       style="overflow:visible"
       inkscape:isstock="true">
      <path
         id="path5454"
         d="M 0,0 5,-5 -12.5,0 5,5 0,0 Z"
         style="fill:#000000;fill-opacity:1;fill-rule:evenodd;stroke:#000000;stroke-width:1pt;stroke-opacity:1"
         transform="matrix(-0.8,0,0,-0.8,-10,0)"
         inkscape:connector-curvature="0" />
    </marker>
  </defs>
  <metadata
     id="metadata7">
    <rdf:RDF>
      <cc:Work
         rdf:about="">
        <dc:format>image/svg+xml</dc:format>
        <dc:type
           rdf:resource="http://purl.org/dc/dcmitype/StillImage" />
        <dc:title></dc:title>
      </cc:Work>
    </rdf:RDF>
  </metadata>
  <g
     id="layer1"
     inkscape:groupmode="layer"
     inkscape:label="Layer 1"
     transform="translate(-452.72935,183.147)">
    <g
       id="g4936"
       inkscape:label="Grid_Polar:X6:Y6"
       transform="matrix(0.58303719,0,0,0.58303719,471.76848,-164.55594)">
      <g
         id="g4938"
         inkscape:label="MajorXGridlines">
        <path
           id="path4940"
           inkscape:label="MajorXDiv1"
           style="fill:none;stroke:#000000;stroke-width:2"
           d="m 100,0 0,600"
           inkscape:connector-curvature="0" />
        <path
           id="path4942"
           inkscape:label="MajorXDiv2"
           style="fill:none;stroke:#000000;stroke-width:2"
           d="m 200,0 0,600"
           inkscape:connector-curvature="0" />
        <path
           id="path4944"
           inkscape:label="MajorXDiv3"
           style="fill:none;stroke:#000000;stroke-width:2"
           d="m 300,0 0,600"
           inkscape:connector-curvature="0" />
        <path
           id="path4946"
           inkscape:label="MajorXDiv4"
           style="fill:none;stroke:#000000;stroke-width:2"
           d="m 400,0 0,600"
           inkscape:connector-curvature="0" />
        <path
           id="path4948"
           inkscape:label="MajorXDiv5"
           style="fill:none;stroke:#000000;stroke-width:2"
           d="m 500,0 0,600"
           inkscape:connector-curvature="0" />
      </g>
      <g
         id="g4950"
         inkscape:label="MajorYGridlines">
        <path
           id="path4952"
           inkscape:label="MajorYDiv1"
           style="fill:none;stroke:#000000;stroke-width:2"
           d="m 0,100 600,0"
           inkscape:connector-curvature="0" />
        <path
           id="path4954"
           inkscape:label="MajorYDiv2"
           style="fill:none;stroke:#000000;stroke-width:2"
           d="m 0,200 600,0"
           inkscape:connector-curvature="0" />
        <path
           id="path4956"
           inkscape:label="MajorYDiv3"
           style="fill:none;stroke:#000000;stroke-width:2"
           d="m 0,300 600,0"
           inkscape:connector-curvature="0" />
        <path
           id="path4958"
           inkscape:label="MajorYDiv4"
           style="fill:none;stroke:#000000;stroke-width:2"
           d="m 0,400 600,0"
           inkscape:connector-curvature="0" />
        <path
           id="path4960"
           inkscape:label="MajorYDiv5"
           style="fill:none;stroke:#000000;stroke-width:2"
           d="m 0,500 600,0"
           inkscape:connector-curvature="0" />
      </g>
      <rect
         id="rect4962"
         inkscape:label="Border"
         y="0"
         x="0"
         width="600"
         style="fill:none;stroke:#000000;stroke-width:3"
         height="600" />
    </g>
    <g
       id="g5371"
       transform="matrix(1.170837,0,0,1.170837,463.34824,392.26709)">
      <path
         sodipodi:nodetypes="csssc"
         id="path4256"
         d="M 79.35996,37.15355 C 150.26961,6.29387 242.37866,22.9555 284.96055,74.34474 327.54243,125.73395 304.55179,192.48671 233.64216,223.34643 162.73251,254.20611 70.62346,237.54447 28.04157,186.15523 -14.482428,134.83588 8.98226,67.93526 79.70453,37.00801"
         style="fill:none;fill-opacity:1;stroke:#000000;stroke-width:1.52023709;stroke-miterlimit:4;stroke-opacity:1"
         inkscape:connector-curvature="0" />
      <path
         id="path4290"
         d="m 97.25133,30.69982 c 54.463,-18.49666 125.20847,-8.51002 157.91402,22.29169 32.70552,30.80165 15.04727,70.81193 -39.41573,89.30865 C 161.28663,160.79682 90.54115,150.81018 57.83561,120.00847 25.17454,89.24867 42.72166,49.30871 97.04075,30.77152"
         style="fill:none;fill-opacity:1;stroke:#000000;stroke-width:1.03147984;stroke-miterlimit:4;stroke-opacity:1"
         inkscape:connector-curvature="0" />
      <path
         sodipodi:nodetypes="cc"
         id="path4294"
         d="M 103.25,118 C 79.4138,52.54778 237.92737,61.78338 210.875,116.75"
         style="fill:none;fill-rule:evenodd;stroke:#000000;stroke-width:1px;stroke-linecap:butt;stroke-linejoin:miter;stroke-opacity:1"
         inkscape:connector-curvature="0" />
      <path
         sodipodi:nodetypes="cc"
         id="path4298"
         d="m 44,202 c 63.29221,36.54795 155.22851,49.61269 234.33579,-8.48223"
         style="fill:none;fill-rule:evenodd;stroke:#000000;stroke-width:1px;stroke-linecap:butt;stroke-linejoin:miter;stroke-opacity:1"
         inkscape:connector-curvature="0" />
      <path
         sodipodi:nodetypes="cc"
         id="path4304"
         d="m 10.36932,154.01887 c 50.09612,86.96143 233.91429,91.71333 292.7422,0.17678"
         style="fill:none;fill-rule:evenodd;stroke:#000000;stroke-width:1px;stroke-linecap:butt;stroke-linejoin:miter;stroke-opacity:1"
         inkscape:connector-curvature="0" />
      <path
         sodipodi:nodetypes="cc"
         id="path2165"
         d="M 7.81066,118.94823 C 21.97271,239.34556 294.99306,226.82905 305.375,118.375"
         style="fill:none;fill-rule:evenodd;stroke:#000000;stroke-width:1px;stroke-linecap:butt;stroke-linejoin:miter;stroke-opacity:1"
         inkscape:connector-curvature="0" />
      <path
         sodipodi:nodetypes="ccc"
         id="path2167"
         d="m 16.02617,92.67736 c -7.73805,34.6304 24.75247,92.74718 139.47681,94.39876 100.15864,-1.37246 153.87681,-49.58226 140.18392,-96.87362"
         style="fill:none;fill-rule:evenodd;stroke:#000000;stroke-width:1px;stroke-linecap:butt;stroke-linejoin:miter;stroke-opacity:1"
         inkscape:connector-curvature="0" />
      <path
         sodipodi:nodetypes="ccc"
         id="path2169"
         d="m 39.71425,62.27177 c -52.463496,73.16726 69.28772,107.96956 117.5565,106.59635 50.16418,2.25616 167.13557,-34.89441 116.14229,-106.2428"
         style="fill:none;fill-rule:evenodd;stroke:#000000;stroke-width:1px;stroke-linecap:butt;stroke-linejoin:miter;stroke-opacity:1"
         inkscape:connector-curvature="0" />
      <path
         style="fill:none;fill-opacity:1;stroke:#000000;stroke-width:1;stroke-miterlimit:4;stroke-dasharray:none;stroke-opacity:1"
         d="m 105.77518,37.65405 c 46.30244,-15.60548 106.44766,-7.17984 134.25272,18.80732 27.80504,25.98712 12.79265,59.74348 -33.50981,75.34902 C 160.21565,147.41588 100.07043,138.99023 72.26537,113.00307 44.49811,87.05127 59.41604,53.35423 105.59615,37.71455"
         id="path2171"
         inkscape:connector-curvature="0" />
      <path
         id="path2173"
         d="m 114.19592,47.59404 c 38.72418,-13.01375 89.02551,-5.98743 112.27975,15.68382 23.25422,21.67122 10.69889,49.82138 -28.02531,62.83518 -38.72417,13.01375 -89.02551,5.98743 -112.27975,-15.68382 C 62.94799,88.78744 75.42433,60.68676 114.04619,47.64449"
         style="fill:none;fill-opacity:1;stroke:#000000;stroke-width:1;stroke-miterlimit:4;stroke-dasharray:none;stroke-opacity:1"
         inkscape:connector-curvature="0" />
      <path
         style="fill:none;fill-opacity:1;stroke:#000000;stroke-width:1;stroke-miterlimit:4;stroke-dasharray:none;stroke-opacity:1"
         d="m 121.367,61.21955 c 31.90235,-10.94183 73.34238,-5.03417 92.50005,13.1868 19.15764,18.22094 8.81412,41.88931 -23.08825,52.83118 -31.90235,10.94183 -73.34238,5.03417 -92.50005,-13.1868 C 79.14713,95.85454 89.42558,72.22778 121.24364,61.26196"
         id="path3146"
         inkscape:connector-curvature="0" />
      <path
         sodipodi:nodetypes="csc"
         id="path4117"
         d="M 106.5,120.125 C 101.82331,94.64097 138.74924,86.39593 155.75005,86.75467 177.72513,87.21838 213.8643,98.96113 205.75,120.125"
         style="fill:none;fill-rule:evenodd;stroke:#000000;stroke-width:1px;stroke-linecap:butt;stroke-linejoin:miter;stroke-opacity:1"
         inkscape:connector-curvature="0" />
      <path
         style="fill:none;fill-rule:evenodd;stroke:#000000;stroke-width:1;stroke-linecap:butt;stroke-linejoin:miter;stroke-miterlimit:4;stroke-dasharray:none;stroke-opacity:1"
         d="m 109.64401,121.73185 c 0.77329,-13.26578 26.90992,-21.43004 43.47944,-22.0883 21.95534,-0.87222 47.71822,9.25472 50.23093,22.0883"
         id="path4119"
         sodipodi:nodetypes="csc"
         inkscape:connector-curvature="0" />
      <path
         sodipodi:nodetypes="csc"
         id="path4121"
         d="m 112,123.125 c 11.39402,-10.27285 28.13261,-13.9362 43.31294,-14.24168 15.17023,-0.30528 31.58075,3.00467 44.81206,14.24168"
         style="fill:none;fill-rule:evenodd;stroke:#000000;stroke-width:1px;stroke-linecap:butt;stroke-linejoin:miter;stroke-opacity:1"
         inkscape:connector-curvature="0" />
      <path
         style="fill:none;fill-rule:evenodd;stroke:#000000;stroke-width:1;stroke-linecap:butt;stroke-linejoin:miter;stroke-miterlimit:4;stroke-dasharray:none;stroke-opacity:1"
         d="m 112.03944,123.58556 c 11.38383,-7.06444 28.10743,-9.58367 43.27417,-9.79373 15.15665,-0.20994 31.55247,2.06625 44.77195,9.79373"
         id="path4123"
         sodipodi:nodetypes="csc"
         inkscape:connector-curvature="0" />
      <path
         sodipodi:nodetypes="cc"
         id="path4125"
         d="m 151,132.5 c -2.8609,35.5 -3.99919,71 -3.11612,106.5"
         style="fill:none;fill-rule:evenodd;stroke:#000000;stroke-width:1px;stroke-linecap:butt;stroke-linejoin:miter;stroke-opacity:1"
         inkscape:connector-curvature="0" />
      <path
         sodipodi:nodetypes="cc"
         id="path4127"
         d="m 137.75,131.25 c -11.23838,21.34496 -21.83553,58.08113 -14.75,105"
         style="fill:none;fill-rule:evenodd;stroke:#000000;stroke-width:1px;stroke-linecap:butt;stroke-linejoin:miter;stroke-opacity:1"
         inkscape:connector-curvature="0" />
      <path
         sodipodi:nodetypes="cc"
         id="path4129"
         d="M 125.25,128.5 C 97.98135,152.3175 88.30767,208.37482 100,231"
         style="fill:none;fill-rule:evenodd;stroke:#000000;stroke-width:1px;stroke-linecap:butt;stroke-linejoin:miter;stroke-opacity:1"
         inkscape:connector-curvature="0" />
      <path
         sodipodi:nodetypes="ccc"
         id="path4131"
         d="m 114,125 0.5,0.25 c -28.42204,10.56151 -49.25324,57.27496 -39.25,96.5"
         style="fill:none;fill-rule:evenodd;stroke:#000000;stroke-width:1px;stroke-linecap:butt;stroke-linejoin:miter;stroke-opacity:1"
         inkscape:connector-curvature="0" />
      <path
         sodipodi:nodetypes="csc"
         id="path4133"
         d="M 109.25,121.5 C 88.3062,119.49616 68.20652,140.32465 60.60346,157.22445 53.57735,172.84183 45.91342,192.80643 57,211.5"
         style="fill:none;fill-rule:evenodd;stroke:#000000;stroke-width:1px;stroke-linecap:butt;stroke-linejoin:miter;stroke-opacity:1"
         inkscape:connector-curvature="0" />
      <path
         sodipodi:nodetypes="ccc"
         id="path4135"
         d="M 101.75,117 C 75.27266,112.18927 63.18273,127.09203 51.625,137.875 37.19734,157.04747 29.35364,176.41359 37.5,196.25"
         style="fill:none;fill-rule:evenodd;stroke:#000000;stroke-width:1px;stroke-linecap:butt;stroke-linejoin:miter;stroke-opacity:1"
         inkscape:connector-curvature="0" />
      <path
         sodipodi:nodetypes="cccc"
         id="path4137"
         d="m 98,114 c -13.0365,-6.0117 -26.55267,-7.06686 -41,1.5 -26.25852,15.39509 -33.38967,36.08169 -34.29289,40.76256 -0.64313,9.96477 -1.84111,15.86366 -0.091,23.53033"
         style="fill:none;fill-rule:evenodd;stroke:#000000;stroke-width:1px;stroke-linecap:butt;stroke-linejoin:miter;stroke-opacity:1"
         inkscape:connector-curvature="0" />
      <path
         sodipodi:nodetypes="ccccc"
         id="path4139"
         d="m 103.17708,117.60288 c -1.75871,-3.87717 -6.61766,-7.96855 -11.66726,-11.84404 -14.99163,-5.71112 -29.26249,-6.51542 -44.7245,1.41421 -14.51766,7.7562 -27.34588,17.20185 -32.52691,34.29468 -1.12221,5.36223 -2.17226,10.72445 -2.82843,16.08668"
         style="fill:none;fill-rule:evenodd;stroke:#000000;stroke-width:1px;stroke-linecap:butt;stroke-linejoin:miter;stroke-opacity:1"
         inkscape:connector-curvature="0" />
      <path
         sodipodi:nodetypes="cccc"
         id="path4141"
         d="M 104.64307,119.02965 C 100.94902,113.42664 100.24532,106.9318 89.56528,100.45554 77.35492,93.33317 62.28536,91.21438 42.54268,97.27356 20.75635,103.82639 10.13934,121.14271 7.18734,141.82128"
         style="fill:none;fill-rule:evenodd;stroke:#000000;stroke-width:1px;stroke-linecap:butt;stroke-linejoin:miter;stroke-opacity:1"
         inkscape:connector-curvature="0" />
      <path
         style="fill:none;fill-rule:evenodd;stroke:#000000;stroke-width:1px;stroke-linecap:butt;stroke-linejoin:miter;stroke-opacity:1"
         d="m 151,132.5 c -2.8609,35.5 -3.99919,71 -3.11612,106.5"
         id="path4143"
         sodipodi:nodetypes="cc"
         inkscape:connector-curvature="0" />
      <path
         style="fill:none;fill-rule:evenodd;stroke:#000000;stroke-width:1px;stroke-linecap:butt;stroke-linejoin:miter;stroke-opacity:1"
         d="m 137.75,131.25 c -11.23838,21.34496 -21.83553,58.08113 -14.75,105"
         id="path4145"
         sodipodi:nodetypes="cc"
         inkscape:connector-curvature="0" />
      <path
         style="fill:none;fill-rule:evenodd;stroke:#000000;stroke-width:1px;stroke-linecap:butt;stroke-linejoin:miter;stroke-opacity:1"
         d="M 125.25,128.5 C 97.98135,152.3175 88.30767,208.37482 100,231"
         id="path4147"
         sodipodi:nodetypes="cc"
         inkscape:connector-curvature="0" />
      <path
         style="fill:none;fill-rule:evenodd;stroke:#000000;stroke-width:1px;stroke-linecap:butt;stroke-linejoin:miter;stroke-opacity:1"
         d="m 114,125 0.5,0.25 c -28.42204,10.56151 -49.25324,57.27496 -39.25,96.5"
         id="path4149"
         sodipodi:nodetypes="ccc"
         inkscape:connector-curvature="0" />
      <path
         style="fill:none;fill-rule:evenodd;stroke:#000000;stroke-width:1px;stroke-linecap:butt;stroke-linejoin:miter;stroke-opacity:1"
         d="M 60.60346,157.22445 C 53.57735,172.84183 45.91342,192.80643 57,211.5"
         id="path4151"
         sodipodi:nodetypes="cc"
         inkscape:connector-curvature="0" />
      <path
         style="fill:none;fill-rule:evenodd;stroke:#000000;stroke-width:1px;stroke-linecap:butt;stroke-linejoin:miter;stroke-opacity:1"
         d="M 101.75,117 C 75.27266,112.18927 63.18273,127.09203 51.625,137.875 37.19734,157.04747 29.35364,176.41359 37.5,196.25"
         id="path4153"
         sodipodi:nodetypes="ccc"
         inkscape:connector-curvature="0" />
      <path
         style="fill:none;fill-rule:evenodd;stroke:#000000;stroke-width:1px;stroke-linecap:butt;stroke-linejoin:miter;stroke-opacity:1"
         d="m 98,114 c -13.0365,-6.0117 -26.55267,-7.06686 -41,1.5 -26.25852,15.39509 -33.38967,36.08169 -34.29289,40.76256 -0.64313,9.96477 -1.84111,15.86366 -0.091,23.53033"
         id="path4155"
         sodipodi:nodetypes="cccc"
         inkscape:connector-curvature="0" />
      <path
         style="fill:none;fill-rule:evenodd;stroke:#000000;stroke-width:1px;stroke-linecap:butt;stroke-linejoin:miter;stroke-opacity:1"
         d="m 103.17708,117.60288 c -1.75871,-3.87717 -6.61766,-7.96855 -11.66726,-11.84404 -14.99163,-5.71112 -29.26249,-6.51542 -44.7245,1.41421 -14.51766,7.7562 -27.34588,17.20185 -32.52691,34.29468 -1.12221,5.36223 -2.17226,10.72445 -2.82843,16.08668"
         id="path4157"
         sodipodi:nodetypes="ccccc"
         inkscape:connector-curvature="0" />
      <path
         style="fill:none;fill-rule:evenodd;stroke:#000000;stroke-width:1px;stroke-linecap:butt;stroke-linejoin:miter;stroke-opacity:1"
         d="M 104.64307,119.02965 C 100.94902,113.42664 100.24532,106.9318 89.56528,100.45554 77.35492,93.33317 62.28536,91.21438 42.54268,97.27356 20.75635,103.82639 10.13934,121.14271 7.18734,141.82128"
         id="path4159"
         sodipodi:nodetypes="cccc"
         inkscape:connector-curvature="0" />
      <path
         sodipodi:nodetypes="cccc"
         id="path4161"
         d="m 106.25,120.25 c -2.03559,-7.26186 -6.09591,-16.44864 -18,-27 C 64.48008,80.39011 51.85348,84.47131 41,86.75 22.75409,90.83743 11.49591,101.91258 7.25,120"
         style="fill:none;fill-rule:evenodd;stroke:#000000;stroke-width:1px;stroke-linecap:butt;stroke-linejoin:miter;stroke-opacity:1"
         inkscape:connector-curvature="0" />
      <path
         sodipodi:nodetypes="cccc"
         id="path4165"
         d="m 107.75,120.75 c -0.15968,-10.91667 -10.68018,-27.33333 -18,-33 C 58.3466,68.70762 42.09493,76.06205 29.75,80 c -4.87609,3.52138 -8.95607,6.6447 -12.5,9.5"
         style="fill:none;fill-rule:evenodd;stroke:#000000;stroke-width:1px;stroke-linecap:butt;stroke-linejoin:miter;stroke-opacity:1"
         inkscape:connector-curvature="0" />
      <path
         sodipodi:nodetypes="cccc"
         id="path4167"
         d="M 109.25,121.75 C 109.60037,108.55983 106.47144,94.77781 92.25,82.5 70.14707,63.95549 58.69159,66.56861 46.75,66.75 40.20215,67.60107 34.9172,68.9586 31.25,71"
         style="fill:none;fill-rule:evenodd;stroke:#000000;stroke-width:1px;stroke-linecap:butt;stroke-linejoin:miter;stroke-opacity:1"
         inkscape:connector-curvature="0" />
      <path
         sodipodi:nodetypes="cccc"
         id="path4169"
         d="m 111,123 c 1.20437,-10.39809 0.5735,-21.69029 -5.5,-32.75 C 98.40712,76.50636 86.34287,66.07698 69.25,59 61.67961,57.81715 54.61464,56.00253 44.5,58"
         style="fill:none;fill-rule:evenodd;stroke:#000000;stroke-width:1px;stroke-linecap:butt;stroke-linejoin:miter;stroke-opacity:1"
         inkscape:connector-curvature="0" />
      <path
         sodipodi:nodetypes="cccc"
         id="path4171"
         d="m 112.25,122.75 c 2.47731,-13.51512 9.50205,-23.1653 -10.5,-51.25 -10.91674,-9.22911 -18.14695,-21.22312 -39,-23 L 58.5,48"
         style="fill:none;fill-rule:evenodd;stroke:#000000;stroke-width:1px;stroke-linecap:butt;stroke-linejoin:miter;stroke-opacity:1"
         inkscape:connector-curvature="0" />
      <path
         sodipodi:nodetypes="ccc"
         id="path4173"
         d="m 115.25,122 c 7.38361,-18.41265 5.44915,-36.50399 -6.5,-54.25 -8.54434,-16.02404 -21.93471,-21.66372 -35,-28"
         style="fill:none;fill-rule:evenodd;stroke:#000000;stroke-width:1px;stroke-linecap:butt;stroke-linejoin:miter;stroke-opacity:1"
         inkscape:connector-curvature="0" />
      <path
         sodipodi:nodetypes="ccc"
         id="path4175"
         d="m 121.40653,119.29742 c 7.31704,-13.96462 3.56293,-27.6604 0.68566,-42.52996 C 112.57613,49.59832 101.21347,40.4825 87.79751,32.92684"
         style="fill:none;fill-rule:evenodd;stroke:#000000;stroke-width:1px;stroke-linecap:butt;stroke-linejoin:miter;stroke-opacity:1"
         inkscape:connector-curvature="0" />
      <path
         sodipodi:nodetypes="csc"
         id="path4177"
         d="m 101.93965,28.6842 c 16.21997,12.28546 22.04635,25.58754 26.59466,40.12355 4.83384,15.44852 5.87216,40.33967 -1.51382,48.53624"
         style="fill:none;fill-rule:evenodd;stroke:#000000;stroke-width:1px;stroke-linecap:butt;stroke-linejoin:miter;stroke-opacity:1"
         inkscape:connector-curvature="0" />
      <path
         sodipodi:nodetypes="cc"
         id="path4179"
         d="M 135.88078,115.38689 C 144.12624,85.7965 137.69467,54.73446 119.61732,24.79511"
         style="fill:none;fill-rule:evenodd;stroke:#000000;stroke-width:1px;stroke-linecap:butt;stroke-linejoin:miter;stroke-opacity:1"
         inkscape:connector-curvature="0" />
      <path
         sodipodi:nodetypes="cc"
         id="path4181"
         d="m 135.79867,22.44524 c 12.26918,29.24692 12.1447,60.81395 10.29594,91.32033"
         style="fill:none;fill-rule:evenodd;stroke:#000000;stroke-width:1px;stroke-linecap:butt;stroke-linejoin:miter;stroke-opacity:1"
         inkscape:connector-curvature="0" />
      <path
         sodipodi:nodetypes="cc"
         id="path4183"
         d="m 156,114 c 1.59715,-31.1861 0.0792,-61.74918 -0.5,-92.5"
         style="fill:none;fill-rule:evenodd;stroke:#000000;stroke-width:1px;stroke-linecap:butt;stroke-linejoin:miter;stroke-opacity:1"
         inkscape:connector-curvature="0" />
      <path
         style="fill:none;fill-rule:evenodd;stroke:#000000;stroke-width:1px;stroke-linecap:butt;stroke-linejoin:miter;stroke-opacity:1"
         d="m 160.89663,132.5 c 2.8609,35.5 3.99919,71 3.11612,106.5"
         id="path4185"
         sodipodi:nodetypes="cc"
         inkscape:connector-curvature="0" />
      <path
         style="fill:none;fill-rule:evenodd;stroke:#000000;stroke-width:1px;stroke-linecap:butt;stroke-linejoin:miter;stroke-opacity:1"
         d="m 174.14663,131.25 c 11.23838,21.34496 21.83553,58.08113 14.75,105"
         id="path4187"
         sodipodi:nodetypes="cc"
         inkscape:connector-curvature="0" />
      <path
         style="fill:none;fill-rule:evenodd;stroke:#000000;stroke-width:1px;stroke-linecap:butt;stroke-linejoin:miter;stroke-opacity:1"
         d="m 186.64663,128.5 c 27.26865,23.8175 36.94233,79.87482 25.25,102.5"
         id="path4189"
         sodipodi:nodetypes="cc"
         inkscape:connector-curvature="0" />
      <path
         style="fill:none;fill-rule:evenodd;stroke:#000000;stroke-width:1px;stroke-linecap:butt;stroke-linejoin:miter;stroke-opacity:1"
         d="m 197.89663,125 -0.5,0.25 c 28.42204,10.56151 49.25324,57.27496 39.25,96.5"
         id="path4191"
         sodipodi:nodetypes="ccc"
         inkscape:connector-curvature="0" />
      <path
         style="fill:none;fill-rule:evenodd;stroke:#000000;stroke-width:1px;stroke-linecap:butt;stroke-linejoin:miter;stroke-opacity:1"
         d="m 202.64663,121.5 c 20.9438,-2.00384 41.04348,18.82465 48.64654,35.72445 7.02611,15.61738 14.69004,35.58198 3.60346,54.27555"
         id="path4193"
         sodipodi:nodetypes="csc"
         inkscape:connector-curvature="0" />
      <path
         style="fill:none;fill-rule:evenodd;stroke:#000000;stroke-width:1px;stroke-linecap:butt;stroke-linejoin:miter;stroke-opacity:1"
         d="m 210.14663,117 c 26.47734,-4.81073 38.56727,10.09203 50.125,20.875 14.42766,19.17247 22.27136,38.53859 14.125,58.375"
         id="path4195"
         sodipodi:nodetypes="ccc"
         inkscape:connector-curvature="0" />
      <path
         style="fill:none;fill-rule:evenodd;stroke:#000000;stroke-width:1px;stroke-linecap:butt;stroke-linejoin:miter;stroke-opacity:1"
         d="m 213.89663,114 c 13.0365,-6.0117 26.55267,-7.06686 41,1.5 26.25852,15.39509 33.38967,36.08169 34.29289,40.76256 0.64313,9.96477 1.84111,15.86366 0.091,23.53033"
         id="path4197"
         sodipodi:nodetypes="cccc"
         inkscape:connector-curvature="0" />
      <path
         style="fill:none;fill-rule:evenodd;stroke:#000000;stroke-width:1px;stroke-linecap:butt;stroke-linejoin:miter;stroke-opacity:1"
         d="m 208.71955,117.60288 c 1.75871,-3.87717 6.61766,-7.96855 11.66726,-11.84404 14.99163,-5.71112 29.26249,-6.51542 44.7245,1.41421 14.51766,7.7562 27.34588,17.20185 32.52691,34.29468 1.12221,5.36223 2.17226,10.72445 2.82843,16.08668"
         id="path4199"
         sodipodi:nodetypes="ccccc"
         inkscape:connector-curvature="0" />
      <path
         style="fill:none;fill-rule:evenodd;stroke:#000000;stroke-width:1px;stroke-linecap:butt;stroke-linejoin:miter;stroke-opacity:1"
         d="m 207.25356,119.02965 c 3.69405,-5.60301 4.39775,-12.09785 15.07779,-18.57411 12.21036,-7.12237 27.27992,-9.24116 47.0226,-3.18198 21.78633,6.55283 32.40334,23.86915 35.35534,44.54772"
         id="path4201"
         sodipodi:nodetypes="cccc"
         inkscape:connector-curvature="0" />
      <path
         sodipodi:nodetypes="cc"
         id="path4203"
         d="m 160.89663,132.5 c 2.8609,35.5 3.99919,71 3.11612,106.5"
         style="fill:none;fill-rule:evenodd;stroke:#000000;stroke-width:1px;stroke-linecap:butt;stroke-linejoin:miter;stroke-opacity:1"
         inkscape:connector-curvature="0" />
      <path
         sodipodi:nodetypes="cc"
         id="path4205"
         d="m 174.14663,131.25 c 11.23838,21.34496 21.83553,58.08113 14.75,105"
         style="fill:none;fill-rule:evenodd;stroke:#000000;stroke-width:1px;stroke-linecap:butt;stroke-linejoin:miter;stroke-opacity:1"
         inkscape:connector-curvature="0" />
      <path
         sodipodi:nodetypes="cc"
         id="path4207"
         d="m 186.64663,128.5 c 27.26865,23.8175 36.94233,79.87482 25.25,102.5"
         style="fill:none;fill-rule:evenodd;stroke:#000000;stroke-width:1px;stroke-linecap:butt;stroke-linejoin:miter;stroke-opacity:1"
         inkscape:connector-curvature="0" />
      <path
         sodipodi:nodetypes="ccc"
         id="path4209"
         d="m 197.89663,125 -0.5,0.25 c 28.42204,10.56151 49.25324,57.27496 39.25,96.5"
         style="fill:none;fill-rule:evenodd;stroke:#000000;stroke-width:1px;stroke-linecap:butt;stroke-linejoin:miter;stroke-opacity:1"
         inkscape:connector-curvature="0" />
      <path
         sodipodi:nodetypes="cc"
         id="path4211"
         d="m 251.29317,157.22445 c 7.02611,15.61738 14.69004,35.58198 3.60346,54.27555"
         style="fill:none;fill-rule:evenodd;stroke:#000000;stroke-width:1px;stroke-linecap:butt;stroke-linejoin:miter;stroke-opacity:1"
         inkscape:connector-curvature="0" />
      <path
         sodipodi:nodetypes="ccc"
         id="path4213"
         d="m 210.14663,117 c 26.47734,-4.81073 38.56727,10.09203 50.125,20.875 14.42766,19.17247 22.27136,38.53859 14.125,58.375"
         style="fill:none;fill-rule:evenodd;stroke:#000000;stroke-width:1px;stroke-linecap:butt;stroke-linejoin:miter;stroke-opacity:1"
         inkscape:connector-curvature="0" />
      <path
         sodipodi:nodetypes="cccc"
         id="path4215"
         d="m 213.89663,114 c 13.0365,-6.0117 26.55267,-7.06686 41,1.5 26.25852,15.39509 33.38967,36.08169 34.29289,40.76256 0.64313,9.96477 1.84111,15.86366 0.091,23.53033"
         style="fill:none;fill-rule:evenodd;stroke:#000000;stroke-width:1px;stroke-linecap:butt;stroke-linejoin:miter;stroke-opacity:1"
         inkscape:connector-curvature="0" />
      <path
         sodipodi:nodetypes="ccccc"
         id="path4217"
         d="m 208.71955,117.60288 c 1.75871,-3.87717 6.61766,-7.96855 11.66726,-11.84404 14.99163,-5.71112 29.26249,-6.51542 44.7245,1.41421 14.51766,7.7562 27.34588,17.20185 32.52691,34.29468 1.12221,5.36223 2.17226,10.72445 2.82843,16.08668"
         style="fill:none;fill-rule:evenodd;stroke:#000000;stroke-width:1px;stroke-linecap:butt;stroke-linejoin:miter;stroke-opacity:1"
         inkscape:connector-curvature="0" />
      <path
         sodipodi:nodetypes="cccc"
         id="path4219"
         d="m 207.25356,119.02965 c 3.69405,-5.60301 4.39775,-12.09785 15.07779,-18.57411 12.21036,-7.12237 27.27992,-9.24116 47.0226,-3.18198 21.78633,6.55283 32.40334,23.86915 35.35534,44.54772"
         style="fill:none;fill-rule:evenodd;stroke:#000000;stroke-width:1px;stroke-linecap:butt;stroke-linejoin:miter;stroke-opacity:1"
         inkscape:connector-curvature="0" />
      <path
         style="fill:none;fill-rule:evenodd;stroke:#000000;stroke-width:1px;stroke-linecap:butt;stroke-linejoin:miter;stroke-opacity:1"
         d="m 205.64663,120.25 c 2.03559,-7.26186 6.09591,-16.44864 18,-27 23.76992,-12.85989 36.39652,-8.77869 47.25,-6.5 18.24591,4.08743 29.50409,15.16258 33.75,33.25"
         id="path4221"
         sodipodi:nodetypes="cccc"
         inkscape:connector-curvature="0" />
      <path
         style="fill:none;fill-rule:evenodd;stroke:#000000;stroke-width:1px;stroke-linecap:butt;stroke-linejoin:miter;stroke-opacity:1"
         d="m 204.14663,120.75 c 0.15968,-10.91667 10.68018,-27.33333 18,-33 31.4034,-19.04238 47.65507,-11.68795 60,-7.75 4.87609,3.52138 8.95607,6.6447 12.5,9.5"
         id="path4223"
         sodipodi:nodetypes="cccc"
         inkscape:connector-curvature="0" />
      <path
         style="fill:none;fill-rule:evenodd;stroke:#000000;stroke-width:1px;stroke-linecap:butt;stroke-linejoin:miter;stroke-opacity:1"
         d="m 202.64663,121.75 c -0.35037,-13.19017 2.77856,-26.97219 17,-39.25 22.10293,-18.54451 33.55841,-15.93139 45.5,-15.75 6.54785,0.85107 11.8328,2.2086 15.5,4.25"
         id="path4225"
         sodipodi:nodetypes="cccc"
         inkscape:connector-curvature="0" />
      <path
         style="fill:none;fill-rule:evenodd;stroke:#000000;stroke-width:1px;stroke-linecap:butt;stroke-linejoin:miter;stroke-opacity:1"
         d="m 200.89663,123 c -1.20437,-10.39809 -0.5735,-21.69029 5.5,-32.75 7.09288,-13.74364 19.15713,-24.17302 36.25,-31.25 7.57039,-1.18285 14.63536,-2.99747 24.75,-1"
         id="path4227"
         sodipodi:nodetypes="cccc"
         inkscape:connector-curvature="0" />
      <path
         style="fill:none;fill-rule:evenodd;stroke:#000000;stroke-width:1px;stroke-linecap:butt;stroke-linejoin:miter;stroke-opacity:1"
         d="m 199.64663,122.75 c -2.47731,-13.51512 -9.50205,-23.1653 10.5,-51.25 10.91674,-9.22911 18.14695,-21.22312 39,-23 l 4.25,-0.5"
         id="path4229"
         sodipodi:nodetypes="cccc"
         inkscape:connector-curvature="0" />
      <path
         style="fill:none;fill-rule:evenodd;stroke:#000000;stroke-width:1px;stroke-linecap:butt;stroke-linejoin:miter;stroke-opacity:1"
         d="m 196.64663,122 c -7.38361,-18.41265 -5.44915,-36.50399 6.5,-54.25 8.54434,-16.02404 21.93471,-21.66372 35,-28"
         id="path4231"
         sodipodi:nodetypes="ccc"
         inkscape:connector-curvature="0" />
      <path
         style="fill:none;fill-rule:evenodd;stroke:#000000;stroke-width:1px;stroke-linecap:butt;stroke-linejoin:miter;stroke-opacity:1"
         d="M 190.4901,119.29742 C 183.17306,105.3328 186.92717,91.63702 189.80444,76.76746 199.3205,49.59832 210.68316,40.4825 224.09912,32.92684"
         id="path4233"
         sodipodi:nodetypes="ccc"
         inkscape:connector-curvature="0" />
      <path
         style="fill:none;fill-rule:evenodd;stroke:#000000;stroke-width:1px;stroke-linecap:butt;stroke-linejoin:miter;stroke-opacity:1"
         d="m 209.95698,28.6842 c -16.21997,12.28546 -22.04635,25.58754 -26.59466,40.12355 -4.83384,15.44852 -5.87216,40.33967 1.51382,48.53624"
         id="path4235"
         sodipodi:nodetypes="csc"
         inkscape:connector-curvature="0" />
      <path
         style="fill:none;fill-rule:evenodd;stroke:#000000;stroke-width:1px;stroke-linecap:butt;stroke-linejoin:miter;stroke-opacity:1"
         d="M 176.01585,115.38689 C 167.77039,85.7965 174.20196,54.73446 192.27931,24.79511"
         id="path4237"
         sodipodi:nodetypes="cc"
         inkscape:connector-curvature="0" />
      <path
         style="fill:none;fill-rule:evenodd;stroke:#000000;stroke-width:1px;stroke-linecap:butt;stroke-linejoin:miter;stroke-opacity:1"
         d="m 176.09796,22.44524 c -12.26918,29.24692 -12.1447,60.81395 -10.29594,91.32033"
         id="path4239"
         sodipodi:nodetypes="cc"
         inkscape:connector-curvature="0" />
    </g>
    <path
       style="fill:none;fill-rule:evenodd;stroke:#000000;stroke-width:5;stroke-linecap:butt;stroke-linejoin:miter;stroke-miterlimit:4;stroke-dasharray:none;stroke-opacity:1;marker-end:url(#Arrow1Lend)"
       d="m 643.76625,201.96771 0,180"
       id="path5445"
       inkscape:connector-curvature="0" />
  </g>
</svg>
